<svg width="44" height="44" viewBox="0 0 44 44" fill="none" xmlns="http://www.w3.org/2000/svg">
<g clip-path="url(#clip0_2890_217)">
<mask id="mask0_2890_217" style="mask-type:alpha" maskUnits="userSpaceOnUse" x="0" y="0" width="44" height="44">
<circle cx="22" cy="22" r="22" fill="white"/>
</mask>
<g mask="url(#mask0_2890_217)">
<g opacity="0.5">
<path fill-rule="evenodd" clip-rule="evenodd" d="M93.5421 62.2418L64.0047 32L34.4673 62.2418L4.92521 32L-1 38.0665V106.933L4.92521 113L34.4673 82.7677L64.0047 113L93.5421 82.7677L123.079 113L129 106.938V38.0617L123.079 32L93.5421 62.2418Z" fill="#FF4367"/>
<path fill-rule="evenodd" clip-rule="evenodd" d="M93.5421 48.2335L64.0047 18L34.4673 48.2335L4.92521 18L-1 24.0658V92.9342L4.92521 99L34.4673 68.7569L64.0047 99L93.5421 68.7569L123.079 99L129 92.939V24.061L123.079 18L93.5421 48.2335Z" fill="#FF585F"/>
<path fill-rule="evenodd" clip-rule="evenodd" d="M93.5421 35.2418L64.0047 5L34.4673 35.2418L4.92521 5L-1 11.0617V79.9335L4.92521 86L34.4673 55.7582L64.0047 86L93.5421 55.7582L123.079 86L129 79.9383V11.057L123.079 5L93.5421 35.2418Z" fill="#FF6D56"/>
<path fill-rule="evenodd" clip-rule="evenodd" d="M93.5421 21.2401L64.0047 -9L34.4673 21.2401L4.92521 -9L-1 -2.93861V65.9338L4.92521 72L34.4673 41.7552L64.0047 72L93.5421 41.7552L123.079 72L129 65.9386V-2.94339L123.079 -9L93.5421 21.2401Z" fill="#FF814D"/>
<path fill-rule="evenodd" clip-rule="evenodd" d="M109.601 -9L93.5421 7.39524L77.4787 -9H50.526L34.4673 7.39524L18.4039 -9H-1V51.9524L4.92521 58L34.4673 27.8429L64.0047 58L93.5421 27.8429L123.079 58L129 51.9571V-9H109.601Z" fill="#FF9645"/>
<path fill-rule="evenodd" clip-rule="evenodd" d="M95.9996 -9L93.5408 -6.49588L91.0866 -9H36.9227L34.4639 -6.49588L32.0097 -9H-1V37.9654L4.92542 44L34.4639 13.9172L64.0023 44L93.5408 13.9172L123.079 44L129 37.9701V-9H95.9996Z" fill="#FFAA3C"/>
<path fill-rule="evenodd" clip-rule="evenodd" d="M-1 -9V23.9876L4.92542 30L34.4639 0.0233068L64.0023 30L93.5455 0.0233068L123.079 30L129 23.9924V-9H-1Z" fill="#FFBF33"/>
</g>
</g>
<path d="M22.2915 26.144C21.4488 26.144 20.6168 26.032 19.7955 25.808C18.9742 25.584 18.3075 25.2853 17.7955 24.912L18.7075 22.832C19.2515 23.1733 19.8328 23.4347 20.4515 23.616C21.0702 23.7973 21.6942 23.888 22.3235 23.888C22.9635 23.888 23.4488 23.8027 23.7795 23.632C24.1208 23.4507 24.2915 23.2 24.2915 22.88C24.2915 22.592 24.1368 22.3573 23.8275 22.176C23.5288 21.9947 22.9528 21.8133 22.0995 21.632C21.0435 21.408 20.2168 21.1413 19.6195 20.832C19.0222 20.5227 18.6008 20.16 18.3555 19.744C18.1208 19.328 18.0035 18.816 18.0035 18.208C18.0035 17.5147 18.1955 16.896 18.5795 16.352C18.9742 15.7973 19.5235 15.3653 20.2275 15.056C20.9422 14.736 21.7582 14.576 22.6755 14.576C23.4862 14.576 24.2702 14.6933 25.0275 14.928C25.7955 15.152 26.3928 15.4453 26.8195 15.808L25.9235 17.888C24.8995 17.184 23.8222 16.832 22.6915 16.832C22.1475 16.832 21.7102 16.9387 21.3795 17.152C21.0488 17.3547 20.8835 17.6267 20.8835 17.968C20.8835 18.1707 20.9422 18.336 21.0595 18.464C21.1768 18.592 21.3955 18.72 21.7155 18.848C22.0355 18.9653 22.5102 19.088 23.1395 19.216C24.1635 19.44 24.9688 19.712 25.5555 20.032C26.1422 20.3413 26.5582 20.704 26.8035 21.12C27.0488 21.536 27.1715 22.032 27.1715 22.608C27.1715 23.7173 26.7448 24.5867 25.8915 25.216C25.0382 25.8347 23.8382 26.144 22.2915 26.144Z" fill="white"/>
</g>
<defs>
<clipPath id="clip0_2890_217">
<rect width="44" height="44" fill="white"/>
</clipPath>
</defs>
</svg>
