<svg width="10" height="14" viewBox="0 0 10 14" fill="none" xmlns="http://www.w3.org/2000/svg">
<path d="M0.0500488 5.57261C0.0500488 5.16761 0.212049 4.84361 0.455049 4.51961L4.01905 0.388609C4.18105 0.145609 4.50505 0.0646094 4.82905 0.145609C5.15305 0.226609 5.31505 0.388609 5.47705 0.712609L5.63905 1.11761C5.80105 1.52261 5.72005 2.00861 5.55805 2.33261L4.10005 5.00561H8.55505C8.79805 5.00561 9.04105 5.16761 9.20305 5.32961C9.36505 5.57261 9.36505 5.81561 9.28405 6.05861L6.93505 12.0526C6.69205 12.7006 6.12505 13.1056 5.39605 13.1056H0.860049C0.374049 13.1056 0.0500488 12.7816 0.0500488 12.2956V5.57261Z" fill="white"/>
</svg>
